# This file uses centimeters as units for non-parametric coordinates.

mtllib houseRoof04.mtl
g default
v 2.408385 7.190991 -0.984009
v 2.408385 6.305703 2.541151
v 6.930209 6.305704 2.541151
v 6.930209 7.190991 -0.984009
v 2.408385 7.012520 -0.733288
v 2.408385 4.583827 2.541151
v 2.408385 6.164520 2.541151
v 6.930209 4.583829 2.541151
v 6.930209 6.164318 2.541151
v 7.159708 7.006637 -0.724056
v 7.159711 7.190991 -0.984009
v 7.126119 6.278866 2.712772
v 7.126119 6.137478 2.712772
v 2.212475 6.137681 2.712772
v 2.212475 6.278865 2.712772
v 2.178885 7.190991 -0.984009
v 2.178885 7.012520 -0.733288
v 6.930207 7.006637 -0.724056
vt 0.411715 0.588631
vt 0.066265 0.588631
vt 0.066265 0.045838
vt 0.411715 0.045838
vt 0.411606 0.616151
vt 0.047755 0.612177
vt 0.043760 0.024843
vt 0.411691 0.022258
vt 0.017169 0.612148
vt 0.017132 0.021591
vt 0.718393 0.968397
vt 0.416488 0.553410
vt 0.612980 0.553410
vt 0.416488 0.545145
vt 0.416488 0.002352
vt 0.695881 0.002352
vt 0.695917 0.545145
vt 0.387031 0.004658
vt 0.739645 0.391454
vt 0.787021 0.325475
vt 0.768146 0.325475
vt 0.723491 0.003450
vt 0.384463 0.629045
vt 0.047382 0.628174
vt 0.739645 0.019563
vt 0.133674 0.998008
vt 0.446666 0.598542
vt 0.337851 0.998008
vt 0.723491 0.407566
vt 0.743958 0.019903
vt 0.760070 0.003750
vt 0.743958 0.328102
vt 0.762833 0.328102
vt 0.787021 0.018145
vt 0.770909 0.001992
vt 0.044613 0.004839
vn 0.001664 0.969907 0.243468
vn 0.001746 0.971659 0.236382
vn -0.001746 0.971659 0.236382
vn -0.001664 0.969907 0.243468
vn -1.000000 0.000000 -0.000000
vn -1.000000 0.000000 -0.000000
vn -1.000000 0.000000 -0.000000
vn 0.000000 0.000000 1.000000
vn 0.000000 0.000000 1.000000
vn 0.000000 0.000000 1.000000
vn 0.000000 0.000000 1.000000
vn 0.999887 0.009376 0.011758
vn 0.999887 0.009376 0.011758
vn 0.999887 0.009376 0.011758
vn 0.999887 0.009376 0.011758
vn 0.000000 0.000000 1.000000
vn 0.000000 0.000000 1.000000
vn 0.000000 0.000000 1.000000
vn 0.000000 0.000000 1.000000
vn -0.999889 0.009177 0.011700
vn -0.999889 0.009177 0.011700
vn -0.999889 0.009177 0.011700
vn -0.999889 0.009177 0.011700
vn 1.000000 0.000000 -0.000001
vn 1.000000 0.000000 -0.000001
vn 1.000000 0.000000 -0.000001
vn -0.001664 0.969907 0.243468
vn -0.001746 0.971659 0.236382
vn -0.030612 0.973165 0.228062
vn -0.036124 0.969803 0.241198
vn 0.013828 -0.982086 -0.187926
vn 0.038586 -0.968231 -0.247061
vn 0.038586 -0.968231 -0.247061
vn 0.032328 -0.972136 -0.232177
vn -0.014044 -0.982008 -0.188316
vn 0.013828 -0.982086 -0.187926
vn 0.032328 -0.972136 -0.232177
vn -0.032671 -0.971937 -0.232961
vn -0.001746 0.971659 0.236382
vn 0.001746 0.971659 0.236382
vn 0.030611 0.973165 0.228062
vn -0.030612 0.973165 0.228062
vn -0.038962 -0.967988 -0.247955
vn -0.014044 -0.982008 -0.188316
vn -0.032671 -0.971937 -0.232961
vn -0.038962 -0.967988 -0.247955
vn 0.001746 0.971659 0.236382
vn 0.001664 0.969907 0.243468
vn 0.036122 0.969803 0.241199
vn 0.030611 0.973165 0.228062
s off
g houseRoof04
usemtl houseRoof02:lambert11SG
f 1/1/1 2/2/2 3/3/3 4/4/4
f 5/11/5 6/12/6 7/13/7
f 6/14/8 8/15/9 9/16/10 7/17/11
f 10/18/12 11/8/13 12/7/14 13/36/15
f 14/9/16 13/10/17 12/7/18 15/6/19
f 16/5/20 17/23/21 14/24/22 15/6/23
f 8/26/24 18/27/25 9/28/26
f 4/4/27 3/3/28 12/7/29 11/8/30
f 9/34/31 18/20/32 10/21/33 13/35/34
f 7/25/35 9/19/36 13/29/37 14/22/38
f 3/3/39 2/2/40 15/6/41 12/7/42
f 5/32/43 7/30/44 14/31/45 17/33/46
f 2/2/47 1/1/48 16/5/49 15/6/50
