# This file uses centimeters as units for non-parametric coordinates.

mtllib houseRoof03.mtl
g default
v -0.898533 5.537330 1.341410
v -3.320380 7.540234 -1.465303
v -3.320380 7.540234 2.911386
v -0.898533 5.537330 2.842918
v -6.921954 4.314178 2.864222
v -3.317405 7.376959 2.895801
v -0.848051 5.301810 2.835367
v -6.701210 4.314178 2.864230
v -0.848051 5.301810 2.420680
v -3.317405 7.376959 2.481113
v -6.701210 4.314178 2.449543
v -2.523557 4.593624 2.420680
v -3.309580 4.373809 2.481113
vt 0.718872 0.377502
vt 0.923282 0.604444
vt 0.604532 0.604444
vt 0.609518 0.377502
vt 0.607967 0.941933
vt 0.152598 0.007392
vt 0.366858 0.266469
vt 0.349392 0.266151
vt 0.127403 0.001992
vt 0.021751 0.651747
vt 0.021751 0.628133
vt 0.016240 0.003500
vt 0.018339 0.423067
vt 0.003941 0.423067
vt 0.001843 0.003500
vt 0.017242 0.998008
vt 0.002845 0.998008
vt 0.472348 0.004881
vt 0.696582 0.271712
vt 0.372071 0.270866
vt 0.395824 0.185931
vt 0.365628 0.637354
vn 0.637306 0.770611 0.000000
vn 0.637306 0.770611 0.000000
vn 0.637306 0.770611 0.000000
vn 0.637306 0.770611 0.000000
vn -0.667208 0.744872 0.000000
vn -0.667208 0.744872 0.000000
vn -0.667208 0.744872 0.000000
vn -0.024734 -0.061204 0.997819
vn -0.024734 -0.061204 0.997819
vn -0.024734 -0.061204 0.997819
vn -0.024734 -0.061204 0.997819
vn 0.033350 -0.049541 0.998215
vn 0.033350 -0.049541 0.998215
vn 0.033350 -0.049541 0.998215
vn 0.033350 -0.049541 0.998215
vn -0.643354 -0.765569 0.000000
vn -0.643354 -0.765569 0.000000
vn -0.643354 -0.765569 0.000000
vn -0.643354 -0.765569 0.000000
vn 0.671063 -0.741400 0.000000
vn 0.671063 -0.741400 0.000000
vn 0.671063 -0.741400 0.000000
vn 0.671063 -0.741400 0.000000
vn 0.029543 -0.013275 0.999475
vn 0.007637 -0.005804 0.999954
vn 0.005433 -0.005053 0.999972
vn 0.029543 -0.013275 0.999475
vn 0.007637 -0.005804 0.999954
vn -0.009308 -0.000024 0.999957
vn 0.005433 -0.005053 0.999972
s off
g houseRoof03
usemtl houseRoof01:lambert4SG
f 1/1/1 2/2/2 3/3/3 4/4/4
f 2/2/5 5/5/6 3/3/7
f 4/6/8 3/7/9 6/8/10 7/9/11
f 5/10/12 8/11/13 6/8/14 3/7/15
f 7/12/16 6/13/17 10/14/18 9/15/19
f 6/13/20 8/16/21 11/17/22 10/14/23
f 9/18/24 10/19/25 13/20/26 12/21/27
f 10/19/28 11/22/29 13/20/30
