# This file uses centimeters as units for non-parametric coordinates.

mtllib porchConcrete.mtl
g default
v -2.214679 0.306214 6.089854
v -3.960911 0.306214 6.085513
v -1.071859 0.306214 6.080948
v 0.772014 0.306214 6.080948
v 1.807689 0.306214 6.085513
v -3.961152 0.023094 6.085513
v -2.214674 0.023094 6.089854
v -1.071449 0.023094 6.080948
v -2.214679 0.306214 3.700470
v -2.214679 0.306214 2.814879
v -3.620841 0.306214 2.814879
v 0.773075 0.023094 6.080948
v 1.809115 0.023094 6.085513
v -3.960911 0.306214 4.081552
v -1.071859 0.306214 4.216435
v 0.772014 0.306214 4.216435
v 1.809115 0.023094 3.952111
v 1.807689 0.306214 3.952111
v -3.961152 0.023094 4.081455
vt 0.001351 0.706059
vt 0.067514 0.706126
vt 0.067765 0.927704
vt 0.001130 0.927675
vt 0.001532 0.525914
vt 0.068282 0.526045
vt 0.001822 0.235261
vt 0.068428 0.235494
vt 0.001986 0.072005
vt 0.068086 0.072296
vt 0.431022 0.706126
vt 0.565867 0.706126
vt 0.565867 0.927704
vt 0.372964 0.927704
vt 0.392856 0.001992
vt 0.067797 0.998008
vt 0.352457 0.526045
vt 0.372947 0.998008
vt 0.352457 0.235494
vt 0.068011 0.001992
vt 0.392780 0.072296
vn -0.002486 0.000000 0.999997
vn -0.002486 0.000000 0.999997
vn -0.002486 0.000000 0.999997
vn -0.002486 0.000000 0.999997
vn 0.007792 0.000006 0.999970
vn 0.007792 0.000006 0.999970
vn 0.007792 0.000006 0.999970
vn 0.007792 0.000006 0.999970
vn 0.000000 1.000000 0.000000
vn 0.000000 1.000000 0.000000
vn 0.000000 1.000000 0.000000
vn 0.000000 1.000000 0.000000
vn 0.000000 0.000000 1.000000
vn 0.000000 0.000000 1.000000
vn 0.000000 0.000000 1.000000
vn 0.000000 0.000000 1.000000
vn -0.004406 -0.000018 0.999990
vn -0.004406 -0.000018 0.999990
vn -0.004406 -0.000018 0.999990
vn -0.004406 -0.000018 0.999990
vn 0.000000 1.000000 0.000000
vn 0.000000 1.000000 0.000000
vn 0.000000 1.000000 0.000000
vn 0.000000 1.000000 0.000000
vn 0.000000 1.000000 0.000000
vn 0.000000 1.000000 0.000000
vn 0.000000 1.000000 0.000000
vn 0.000000 1.000000 0.000000
vn 0.999987 0.005039 0.000000
vn 0.999987 0.005039 0.000000
vn 0.999987 0.005039 0.000000
vn 0.999987 0.005039 0.000000
vn 0.000000 1.000000 0.000000
vn 0.000000 1.000000 0.000000
vn 0.000000 1.000000 0.000000
vn 0.000000 1.000000 0.000000
vn -1.000000 0.000848 0.000000
vn -1.000000 0.000848 0.000000
vn -1.000000 0.000848 0.000000
vn -1.000000 0.000848 0.000000
vn 0.000000 1.000000 0.000000
vn 0.000000 1.000000 0.000000
vn 0.000000 1.000000 0.000000
vn 0.000000 1.000000 0.000000
s off
g porchConcrete1
usemtl porchConcrete:baked_lambert5SG_porchConcreteSG
f 7/1/1 1/2/2 2/3/3 6/4/4
f 8/5/5 3/6/6 1/2/7 7/1/8
f 9/11/9 10/12/10 11/13/11 14/14/12
f 12/7/13 4/8/14 3/6/15 8/5/16
f 13/9/17 5/10/18 4/8/19 12/7/20
f 15/17/21 9/11/22 1/2/23 3/6/24
f 16/19/25 15/17/26 3/6/27 4/8/28
f 17/15/29 18/21/30 5/10/31 13/20/32
f 18/21/33 16/19/34 4/8/35 5/10/36
f 14/14/37 19/18/38 6/16/39 2/3/40
f 9/11/41 14/14/42 2/3/43 1/2/44
