# This file uses centimeters as units for non-parametric coordinates.

mtllib zalesRing_jewel.mtl
g zalesRing_jewel:default1
v -0.092109 0.571864 0.476646
v 0.113057 0.571864 0.474799
v -1.472962 2.158731 1.368680
v 1.404360 2.158670 1.373055
v -1.434777 2.155930 -1.410224
v 1.434144 2.156233 -1.467849
v -0.101290 0.571864 -0.542847
v 0.103876 0.571864 -0.544694
v -1.487623 1.686600 1.429565
v -1.450532 1.683796 -1.470834
v 1.448805 1.684102 -1.528733
v 1.420115 1.686539 1.433665
v -1.156090 0.910583 1.061295
v -1.112421 0.907779 -1.108594
v 1.117272 0.908084 -1.160464
v 1.082004 0.910522 1.071426
v -1.427159 1.209156 1.342218
v -1.389685 1.206405 -1.384965
v 1.388346 1.206704 -1.441181
v 1.359116 1.209096 1.346849
v -1.140831 2.339565 0.992524
v 1.065508 2.339503 1.002941
v 1.102013 2.337068 -1.091693
v -1.095925 2.336762 -1.040110
v 1.790400 1.685260 -0.034379
v 1.685470 1.207841 -0.034473
v 1.162968 0.909244 -0.032130
v 0.222975 0.571864 -0.031233
v -0.211123 0.571864 -0.027324
v -1.150979 0.909244 -0.011293
v -1.724004 1.207841 -0.003771
v -1.828924 1.685260 -0.001788
v -1.796751 2.157392 -0.002643
v -1.117390 2.372265 -0.012235
v 1.129367 2.372265 -0.032467
v 1.758217 2.157392 -0.034655
v -0.003257 0.571864 -0.620407
v 0.007304 0.571864 0.552429
v 0.014731 0.909244 1.374289
v 0.017212 1.207841 1.691679
v 0.018535 1.685260 1.794481
v 0.017905 2.157392 1.724597
v 0.014199 2.396989 1.295617
v 0.001733 2.537767 -0.020568
v -0.009923 2.396989 -1.383151
v -0.013948 2.157392 -1.812688
v -0.014576 1.685260 -1.882572
v -0.014048 1.207841 -1.779770
v -0.010813 0.909244 -1.462380
vt 0.750747 0.828465
vt 0.761632 0.839156
vt 0.761635 0.953753
vt 0.632862 0.908644
vt 0.738126 0.758050
vt 0.773368 0.828465
vt 0.879603 0.912866
vt 0.761593 0.998008
vt 0.602697 0.947471
vt 0.634490 0.759105
vt 0.750747 0.686311
vt 0.761632 0.675620
vt 0.785989 0.758050
vt 0.889625 0.759105
vt 0.909881 0.951615
vt 0.571306 0.759434
vt 0.639830 0.606162
vt 0.761635 0.558219
vt 0.773368 0.686311
vt 0.885707 0.601730
vt 0.947234 0.759434
vt 0.609536 0.567281
vt 0.761593 0.513962
vt 0.915872 0.562931
vt 0.211249 0.219337
vt 0.338291 0.175628
vt 0.338878 0.359112
vt 0.215147 0.359201
vt 0.164833 0.161559
vt 0.338273 0.128088
vt 0.454489 0.215114
vt 0.462558 0.359396
vt 0.338291 0.549145
vt 0.218218 0.502680
vt 0.135945 0.358214
vt 0.501006 0.156784
vt 0.522544 0.358948
vt 0.460594 0.507112
vt 0.338275 0.595960
vt 0.171773 0.561443
vt 0.506734 0.565660
vt 0.133571 0.132826
vt 0.087751 0.095535
vt 0.337801 0.073462
vt 0.075923 0.359385
vt 0.587119 0.358355
vt 0.140057 0.591442
vt 0.583248 0.630696
vt 0.001891 0.360752
vt 0.093370 0.629654
vt 0.577637 0.089214
vt 0.531594 0.127407
vt 0.338013 0.650096
vt 0.667153 0.357388
vt 0.336949 0.001992
vt 0.537777 0.594481
vt 0.337591 0.721404
vn -0.093650 -0.977625 0.188361
vn 0.000958 -0.982043 0.188655
vn 0.007340 -0.565229 0.824901
vn -0.254468 -0.557140 0.790469
vn -0.077988 0.981709 0.173681
vn 0.001740 0.984861 0.173338
vn 0.000000 1.000000 0.000000
vn -0.087285 0.996183 0.000786
vn -0.002440 -0.982043 -0.188642
vn -0.097027 -0.977625 -0.186644
vn -0.268661 -0.557140 -0.785758
vn -0.007516 -0.565229 -0.824900
vn 0.514060 -0.649708 0.560019
vn 0.176379 -0.976220 0.126034
vn 0.247456 -0.968897 -0.002228
vn 0.694945 -0.719036 -0.006258
vn -0.174081 -0.976220 0.129190
vn -0.503892 -0.649708 0.569185
vn -0.694945 -0.719036 0.006258
vn -0.247456 -0.968897 0.002228
vn -0.611214 -0.030308 0.790885
vn -0.599456 0.178516 0.780247
vn -0.994998 0.099496 0.008960
vn -0.998197 -0.059343 0.008989
vn -0.277166 0.218694 -0.935602
vn -0.008822 0.227015 -0.973851
vn -0.008948 -0.003891 -0.999952
vn -0.285496 -0.000014 -0.958380
vn 0.613409 0.178516 0.769325
vn 0.625356 -0.030307 0.779751
vn 0.998197 -0.059343 -0.008989
vn 0.994998 0.099496 -0.008960
vn -0.268191 -0.000013 0.963366
vn 0.009061 -0.003891 0.999951
vn 0.008717 0.227016 0.973852
vn -0.260272 0.218694 0.940442
vn -0.503892 -0.649708 0.569185
vn -0.561065 -0.471601 0.680293
vn -0.839786 -0.542865 0.007562
vn -0.694945 -0.719036 0.006258
vn -0.279167 -0.384809 -0.879766
vn -0.008204 -0.396780 -0.917877
vn -0.007516 -0.565229 -0.824900
vn -0.268661 -0.557140 -0.785758
vn 0.573225 -0.471601 0.670079
vn 0.514060 -0.649708 0.560019
vn 0.694945 -0.719036 -0.006258
vn 0.839786 -0.542865 -0.007562
vn -0.254468 -0.557140 0.790469
vn 0.007340 -0.565229 0.824901
vn 0.008327 -0.396780 0.917876
vn -0.263279 -0.384809 0.884651
vn -0.561065 -0.471601 0.680293
vn -0.611214 -0.030308 0.790885
vn -0.998197 -0.059343 0.008989
vn -0.839786 -0.542865 0.007562
vn -0.285496 -0.000014 -0.958380
vn -0.008948 -0.003891 -0.999952
vn -0.008204 -0.396780 -0.917877
vn -0.279167 -0.384809 -0.879766
vn 0.625356 -0.030307 0.779751
vn 0.573225 -0.471601 0.670079
vn 0.839786 -0.542865 -0.007562
vn 0.998197 -0.059343 -0.008989
vn -0.263279 -0.384809 0.884651
vn 0.008327 -0.396780 0.917876
vn 0.009061 -0.003891 0.999951
vn -0.268191 -0.000013 0.963366
vn -0.111408 0.922748 0.368950
vn 0.003456 0.928802 0.370561
vn 0.003191 0.928802 0.370563
vn -0.111408 0.922748 0.368950
vn 0.211767 0.938192 0.273771
vn 0.211767 0.938192 0.273771
vn 0.318884 0.947789 -0.002872
vn 0.318884 0.947789 -0.002872
vn -0.003217 0.928802 -0.370563
vn -0.118034 0.922748 -0.366883
vn -0.118034 0.922748 -0.366883
vn -0.003482 0.928802 -0.370561
vn -0.206803 0.938192 0.277540
vn -0.206803 0.938192 0.277540
vn -0.318884 0.947789 0.002872
vn -0.318884 0.947789 0.002872
vn -0.001216 0.988050 -0.154129
vn -0.077655 0.985149 -0.153140
vn -0.087285 0.996183 0.000786
vn 0.000000 1.000000 0.000000
vn -0.226826 0.939230 -0.257677
vn -0.226826 0.939230 -0.257677
vn -0.318884 0.947789 0.002872
vn -0.318884 0.947789 0.002872
vn -0.659374 0.171963 -0.731884
vn -0.671150 -0.032344 -0.740616
vn -0.998197 -0.059343 0.008989
vn -0.994998 0.099496 0.008960
vn -0.671150 -0.032344 -0.740616
vn -0.612691 -0.471622 -0.634179
vn -0.839786 -0.542865 0.007562
vn -0.998197 -0.059343 0.008989
vn -0.612691 -0.471622 -0.634179
vn -0.546928 -0.649774 -0.527886
vn -0.694945 -0.719036 0.006258
vn -0.839786 -0.542865 0.007562
vn -0.546928 -0.649774 -0.527886
vn -0.188392 -0.974859 -0.118989
vn -0.247456 -0.968897 0.002228
vn -0.694945 -0.719036 0.006258
vn 0.186219 -0.974859 -0.122362
vn 0.537332 -0.649774 -0.537650
vn 0.694945 -0.719036 -0.006258
vn 0.247456 -0.968897 -0.002228
vn 0.537332 -0.649774 -0.537650
vn 0.601171 -0.471622 -0.645110
vn 0.839786 -0.542865 -0.007562
vn 0.694945 -0.719036 -0.006258
vn 0.601171 -0.471622 -0.645110
vn 0.657704 -0.032344 -0.752582
vn 0.998197 -0.059343 -0.008989
vn 0.839786 -0.542865 -0.007562
vn 0.657704 -0.032344 -0.752582
vn 0.646087 0.171963 -0.743640
vn 0.994998 0.099496 -0.008960
vn 0.998197 -0.059343 -0.008989
vn 0.222149 0.939230 -0.261720
vn 0.222149 0.939230 -0.261720
vn 0.318884 0.947789 -0.002872
vn 0.318884 0.947789 -0.002872
vn 0.251667 -0.557055 -0.791425
vn 0.090964 -0.977764 -0.188953
vn -0.002440 -0.982043 -0.188642
vn -0.007516 -0.565229 -0.824900
vn 0.007340 -0.565229 0.824901
vn 0.000958 -0.982043 0.188655
vn 0.094352 -0.977764 0.187284
vn 0.265879 -0.557055 0.786764
vn 0.008327 -0.396780 0.917876
vn 0.007340 -0.565229 0.824901
vn 0.265879 -0.557055 0.786764
vn 0.276685 -0.384742 0.880579
vn 0.009061 -0.003891 0.999951
vn 0.008327 -0.396780 0.917876
vn 0.276685 -0.384742 0.880579
vn 0.283265 0.000012 0.959042
vn 0.008717 0.227016 0.973852
vn 0.009061 -0.003891 0.999951
vn 0.283265 0.000012 0.959042
vn 0.275006 0.218773 0.936221
vn 0.003191 0.928802 0.370563
vn 0.003456 0.928802 0.370561
vn 0.116925 0.922709 0.367337
vn 0.116925 0.922709 0.367337
vn 0.000000 1.000000 0.000000
vn 0.001740 0.984861 0.173338
vn 0.080278 0.981834 0.171922
vn 0.086635 0.996240 -0.000780
vn -0.001216 0.988050 -0.154129
vn 0.000000 1.000000 0.000000
vn 0.086635 0.996240 -0.000780
vn 0.074104 0.985254 -0.154221
vn 0.110291 0.922709 -0.369383
vn -0.003217 0.928802 -0.370563
vn -0.003482 0.928802 -0.370561
vn 0.110291 0.922709 -0.369383
vn -0.008948 -0.003891 -0.999952
vn -0.008822 0.227015 -0.973851
vn 0.258102 0.218773 -0.941022
vn 0.265948 0.000012 -0.963987
vn -0.008204 -0.396780 -0.917877
vn -0.008948 -0.003891 -0.999952
vn 0.265948 0.000012 -0.963987
vn 0.260782 -0.384742 -0.885419
vn -0.007516 -0.565229 -0.824900
vn -0.008204 -0.396780 -0.917877
vn 0.260782 -0.384742 -0.885419
vn 0.251667 -0.557055 -0.791425
s off
g zalesRing_jewel:Ring zalesRing_jewel:polySurface2 zalesRing_jewel:polySurface1
usemtl lambert6SG
f 1/1/1 38/2/2 39/3/3 13/4/4
f 21/25/5 43/26/6 44/27/7 34/28/8
f 37/12/9 7/11/10 14/17/11 49/18/12
f 16/7/13 2/6/14 28/13/15 27/14/16
f 1/1/17 13/4/18 30/10/19 29/5/20
f 9/42/21 3/29/22 33/35/23 32/45/24
f 5/40/25 46/39/26 47/53/27 10/47/28
f 4/36/29 12/52/30 25/46/31 36/37/32
f 9/42/33 41/44/34 42/30/35 3/29/36
f 13/4/37 17/9/38 31/16/39 30/10/40
f 18/22/41 48/23/42 49/18/43 14/17/44
f 20/15/45 16/7/46 27/14/47 26/21/48
f 13/4/49 39/3/50 40/8/51 17/9/52
f 17/43/53 9/42/54 32/45/55 31/49/56
f 10/47/57 47/53/58 48/57/59 18/50/60
f 12/52/61 20/51/62 26/54/63 25/46/64
f 17/43/65 40/55/66 41/44/67 9/42/68
f 3/29/69 42/30/70 43/26/71 21/25/72
f 22/31/73 4/36/74 36/37/75 35/32/76
f 46/39/77 5/40/78 24/34/79 45/33/80
f 3/29/81 21/25/82 34/28/83 33/35/84
f 45/33/85 24/34/86 34/28/87 44/27/88
f 24/34/89 5/40/90 33/35/91 34/28/92
f 5/40/93 10/47/94 32/45/95 33/35/96
f 10/47/97 18/50/98 31/49/99 32/45/100
f 18/22/101 14/17/102 30/10/103 31/16/104
f 14/17/105 7/11/106 29/5/107 30/10/108
f 8/19/109 15/20/110 27/14/111 28/13/112
f 15/20/113 19/24/114 26/21/115 27/14/116
f 19/48/117 11/56/118 25/46/119 26/54/120
f 11/56/121 6/41/122 36/37/123 25/46/124
f 6/41/125 23/38/126 35/32/127 36/37/128
f 15/20/129 8/19/130 37/12/131 49/18/132
f 39/3/133 38/2/134 2/6/135 16/7/136
f 40/8/137 39/3/138 16/7/139 20/15/140
f 41/44/141 40/55/142 20/51/143 12/52/144
f 42/30/145 41/44/146 12/52/147 4/36/148
f 43/26/149 42/30/150 4/36/151 22/31/152
f 44/27/153 43/26/154 22/31/155 35/32/156
f 45/33/157 44/27/158 35/32/159 23/38/160
f 6/41/161 46/39/162 45/33/163 23/38/164
f 47/53/165 46/39/166 6/41/167 11/56/168
f 48/57/169 47/53/170 11/56/171 19/48/172
f 49/18/173 48/23/174 19/24/175 15/20/176
