# This file uses centimeters as units for non-parametric coordinates.

mtllib blueJewel.mtl
g jewel:default1
v -0.283990 12.073684 2.652935
v 0.729870 12.073684 2.652935
v -4.058653 21.981691 9.635333
v 4.504532 21.981691 9.635333
v -4.058653 21.981691 -10.700564
v 4.504532 21.981691 -10.700564
v -0.283990 12.073684 -3.718167
v 0.729870 12.073684 -3.718167
v -4.133806 20.172482 10.014960
v -4.133806 20.172482 -11.080190
v 4.579684 20.172482 -11.080190
v 4.579684 20.172482 10.014960
v -2.479236 14.181968 7.732381
v -2.479236 14.181968 -8.797612
v 2.925115 14.181968 -8.797612
v 2.925115 14.181968 7.732381
v -3.964256 18.159428 9.635333
v -3.964256 18.159428 -10.700564
v 4.410135 18.159428 -10.700564
v 4.410135 18.159428 9.635333
v -2.400775 23.111721 7.303507
v 2.846654 23.111721 7.303507
v 2.846654 23.111721 -8.368738
v -2.400775 23.111721 -8.368738
v 5.306721 23.680676 4.382356
v -4.894913 23.817410 4.449794
v -7.926942 21.981691 5.843571
v -8.069997 20.172482 6.081630
v -7.747263 18.159428 5.843571
v -4.920571 14.181968 4.650255
v -0.741987 12.073684 1.465001
v 1.187866 12.073684 1.465001
v 5.366449 14.181968 4.650255
v 8.193143 18.159428 5.843572
v 8.515876 20.172482 6.081630
v 8.372822 21.981691 5.843571
v 9.441088 20.172482 -0.434423
v 9.082349 18.159428 -0.437957
v 5.940292 14.181968 -0.455673
v 1.295519 12.073684 -0.502960
v -0.849640 12.073684 -0.502960
v -5.494413 14.181968 -0.455673
v -8.636470 18.159428 -0.437957
v -8.995209 20.172482 -0.434423
v -8.836196 21.981691 -0.437957
v -5.328401 23.324442 -0.459666
v 5.774280 23.324442 -0.459666
v 9.282075 21.981691 -0.437957
v 8.515876 20.172482 -6.634111
v 8.193143 18.159428 -6.414507
v 5.366449 14.181968 -5.313699
v 1.187866 12.073684 -2.375374
v -0.741987 12.073684 -2.375374
v -4.920571 14.181968 -5.313699
v -7.747263 18.159428 -6.414507
v -8.069997 20.172482 -6.634111
v -7.926942 21.981691 -6.414507
v -4.888559 23.787827 -5.127251
v 5.306721 23.680676 -5.064564
v 8.372822 21.981691 -6.414507
v 0.203866 12.073684 -4.197309
v 0.203893 12.073684 -2.652544
v 0.201768 12.073684 -0.498499
v 0.203893 12.073684 1.765465
v 0.203866 12.073684 3.132077
v 0.203996 14.181968 8.975527
v 0.204085 18.159428 11.164705
v 0.204095 20.172482 11.601430
v 0.204090 21.981691 11.164703
v 0.204867 23.478943 8.483897
v 0.204132 23.875755 4.482188
v 0.201832 24.358665 -0.448767
v 0.204132 23.875755 -5.109186
v 0.204867 23.478943 -9.545624
v 0.204090 21.981691 -12.229934
v 0.204095 20.172482 -12.666659
v 0.204085 18.159428 -12.229934
v 0.203996 14.181968 -10.040758
vt 0.788726 0.414211
vt 0.755018 0.737633
vt 0.330367 0.090865
vt 0.404097 0.093006
vt 0.342706 0.205058
vt 0.233352 0.137090
vt 0.755018 0.540384
vt 0.788726 0.242751
vt 0.788726 0.382241
vt 0.755018 0.700855
vt 0.755018 0.724739
vt 0.755018 0.692769
vt 0.608634 0.506485
vt 0.608634 0.612339
vt 0.564264 0.602122
vt 0.564264 0.500078
vt 0.564264 0.054839
vt 0.998008 0.324208
vt 0.953638 0.312455
vt 0.608634 0.044623
vt 0.953638 0.922867
vt 0.953638 0.817012
vt 0.998008 0.810606
vt 0.998008 0.912650
vt 0.953638 0.965562
vt 0.998008 0.953809
vt 0.737021 0.467963
vt 0.737021 0.550910
vt 0.639476 0.602122
vt 0.639476 0.500078
vt 0.639475 0.054839
vt 0.904269 0.324208
vt 0.806723 0.383124
vt 0.737021 0.106052
vt 0.806723 0.861437
vt 0.806723 0.778491
vt 0.904269 0.810606
vt 0.904269 0.912650
vt 0.806723 0.894893
vt 0.904269 0.953809
vt 0.330738 0.003173
vt 0.445197 0.022200
vt 0.519249 0.123116
vt 0.537974 0.278698
vt 0.450107 0.276776
vt 0.442391 0.161745
vt 0.564264 0.170186
vt 0.608634 0.164276
vt 0.639476 0.170186
vt 0.737021 0.199812
vt 0.788726 0.278888
vt 0.755018 0.581957
vt 0.755018 0.589416
vt 0.755018 0.553278
vt 0.806723 0.510339
vt 0.806723 0.416579
vt 0.904269 0.480714
vt 0.904269 0.365367
vt 0.953638 0.474804
vt 0.953638 0.355150
vt 0.998008 0.480714
vt 0.998008 0.365367
vt 0.086383 0.673051
vt 0.018837 0.572645
vt 0.904269 0.641556
vt 0.953638 0.641651
vt 0.806723 0.641079
vt 0.755018 0.639807
vt 0.788726 0.329279
vt 0.755018 0.639927
vt 0.737021 0.330551
vt 0.639476 0.331028
vt 0.608634 0.331123
vt 0.564264 0.331028
vt 0.089994 0.529740
vt 0.127570 0.597892
vt 0.998008 0.641556
vt 0.190000 0.057104
vt 0.788726 0.427106
vt 0.788726 0.271429
vt 0.788726 0.329399
vt 0.737021 0.072596
vt 0.788726 0.390327
vt 0.788726 0.229856
vt 0.564264 0.013681
vt 0.564264 0.643281
vt 0.737021 0.584366
vt 0.639476 0.643281
vt 0.608634 0.655034
vt 0.608634 0.001927
vt 0.639475 0.013681
vt 0.086600 0.405364
vt 0.195598 0.473647
vt 0.001992 0.400371
vt 0.305215 0.541321
vt 0.349967 0.620539
vt 0.201647 0.688312
vt 0.202019 0.600620
vt 0.148799 0.268715
vt 0.074246 0.220726
vt 0.267028 0.343110
vt 0.461043 0.465458
vt 0.385824 0.418684
vn -0.120245 -0.974973 0.187002
vn -0.000937 -0.982043 0.188656
vn -0.000111 -0.565229 0.824934
vn -0.324212 -0.546058 0.772468
vn -0.100408 0.979853 0.172645
vn 0.000226 0.984861 0.173347
vn 0.000004 0.998213 0.059764
vn -0.108252 0.993376 0.038538
vn -0.000937 -0.982043 -0.188656
vn -0.120245 -0.974973 -0.187002
vn -0.324212 -0.546058 -0.772468
vn -0.000111 -0.565229 -0.824934
vn 0.000000 -1.000000 0.000000
vn 0.000000 -1.000000 0.000000
vn 0.000000 -1.000000 0.000000
vn 0.000000 -1.000000 0.000000
vn 0.219596 -0.967360 0.126459
vn 0.280592 -0.959005 0.039715
vn 0.731285 -0.638239 0.240568
vn 0.598873 -0.604477 0.525317
vn -0.280592 -0.959005 0.039715
vn -0.219596 -0.967360 0.126459
vn -0.598873 -0.604477 0.525317
vn -0.731285 -0.638239 0.240568
vn -0.928509 -0.037593 0.369401
vn -0.705296 -0.027338 0.708385
vn -0.694237 0.161594 0.701372
vn -0.934652 0.124567 0.333030
vn -0.332717 0.214110 -0.918399
vn -0.000066 0.227015 -0.973891
vn 0.000072 -0.003891 -0.999992
vn -0.342341 -0.000014 -0.939576
vn 0.705296 -0.027337 0.708386
vn 0.928509 -0.037593 0.369401
vn 0.934652 0.124567 0.333030
vn 0.694237 0.161594 0.701372
vn -0.342341 -0.000013 0.939576
vn 0.000072 -0.003891 0.999992
vn -0.000066 0.227016 0.973891
vn -0.332717 0.214110 0.918399
vn -0.731285 -0.638239 0.240568
vn -0.598873 -0.604477 0.525317
vn -0.656739 -0.431814 0.618249
vn -0.840328 -0.454745 0.295053
vn -0.335687 -0.376597 -0.863417
vn 0.000078 -0.396780 -0.917914
vn -0.000111 -0.565229 -0.824934
vn -0.324212 -0.546058 -0.772468
vn 0.598873 -0.604477 0.525317
vn 0.731285 -0.638239 0.240568
vn 0.840328 -0.454745 0.295053
vn 0.656739 -0.431814 0.618249
vn -0.324212 -0.546058 0.772468
vn -0.000111 -0.565229 0.824934
vn 0.000078 -0.396780 0.917914
vn -0.335687 -0.376597 0.863417
vn -0.840328 -0.454745 0.295053
vn -0.656739 -0.431814 0.618249
vn -0.705296 -0.027338 0.708385
vn -0.928509 -0.037593 0.369401
vn -0.342341 -0.000014 -0.939576
vn 0.000072 -0.003891 -0.999992
vn 0.000078 -0.396780 -0.917914
vn -0.335687 -0.376597 -0.863417
vn 0.656739 -0.431814 0.618249
vn 0.840328 -0.454745 0.295053
vn 0.928509 -0.037593 0.369401
vn 0.705296 -0.027337 0.708386
vn -0.335687 -0.376597 0.863417
vn 0.000078 -0.396780 0.917914
vn 0.000072 -0.003891 0.999992
vn -0.342341 -0.000013 0.939576
vn -0.144515 0.919131 0.366489
vn 0.000151 0.928802 0.370577
vn -0.000184 0.928802 0.370577
vn -0.144515 0.919131 0.366489
vn 0.261269 0.926116 0.272118
vn 0.335963 0.933480 0.125475
vn 0.341028 0.933029 0.114701
vn 0.261269 0.926116 0.272118
vn 0.000151 0.928802 -0.370577
vn -0.144515 0.919131 -0.366489
vn -0.144515 0.919131 -0.366489
vn -0.000184 0.928802 -0.370577
vn -0.335963 0.933480 0.125475
vn -0.261269 0.926116 0.272118
vn -0.261269 0.926116 0.272118
vn -0.341028 0.933029 0.114701
vn -0.106657 0.993431 -0.041453
vn 0.000003 0.998275 -0.058720
vn 0.000218 0.988050 -0.154134
vn -0.096288 0.983436 -0.153566
vn -0.279710 0.925360 -0.255874
vn -0.340801 0.931797 -0.124935
vn -0.345214 0.931485 -0.114732
vn -0.279710 0.925360 -0.255874
vn -0.747226 -0.028762 -0.663947
vn -0.931568 -0.037371 -0.361640
vn -0.936182 0.121711 -0.329773
vn -0.736767 0.153481 -0.658497
vn -0.694704 -0.426853 -0.578950
vn -0.843660 -0.451014 -0.291244
vn -0.931568 -0.037371 -0.361640
vn -0.747226 -0.028762 -0.663947
vn -0.632194 -0.599147 -0.491277
vn -0.736287 -0.633670 -0.237368
vn -0.843660 -0.451014 -0.291244
vn -0.694704 -0.426853 -0.578950
vn -0.736287 -0.633670 -0.237368
vn -0.632194 -0.599147 -0.491277
vn -0.234427 -0.964770 -0.119431
vn -0.283131 -0.958213 -0.040798
vn 0.000000 -1.000000 0.000000
vn 0.000000 -1.000000 0.000000
vn 0.000000 -1.000000 0.000000
vn 0.000000 -1.000000 0.000000
vn 0.283131 -0.958213 -0.040798
vn 0.234427 -0.964770 -0.119431
vn 0.632194 -0.599147 -0.491277
vn 0.736287 -0.633670 -0.237368
vn 0.843660 -0.451014 -0.291244
vn 0.736287 -0.633670 -0.237368
vn 0.632194 -0.599147 -0.491277
vn 0.694704 -0.426853 -0.578950
vn 0.931568 -0.037371 -0.361640
vn 0.843660 -0.451014 -0.291244
vn 0.694704 -0.426853 -0.578950
vn 0.747226 -0.028762 -0.663947
vn 0.936182 0.121711 -0.329773
vn 0.931568 -0.037371 -0.361640
vn 0.747226 -0.028762 -0.663947
vn 0.736767 0.153481 -0.658497
vn 0.345214 0.931485 -0.114732
vn 0.340801 0.931797 -0.124935
vn 0.279710 0.925360 -0.255874
vn 0.279710 0.925360 -0.255874
vn 0.928509 -0.037593 0.369401
vn 0.840328 -0.454745 0.295053
vn 0.890421 -0.455137 0.000000
vn 0.998897 -0.046957 0.000000
vn 0.840328 -0.454745 0.295053
vn 0.731285 -0.638239 0.240568
vn 0.773976 -0.633215 0.000000
vn 0.890421 -0.455137 0.000000
vn 0.773976 -0.633215 0.000000
vn 0.731285 -0.638239 0.240568
vn 0.280592 -0.959005 0.039715
vn 0.307360 -0.951593 0.000000
vn 0.000000 -1.000000 0.000000
vn 0.000000 -1.000000 0.000000
vn 0.000000 -1.000000 0.000000
vn 0.000000 -1.000000 0.000000
vn -0.307360 -0.951593 0.000000
vn -0.280592 -0.959005 0.039715
vn -0.731285 -0.638239 0.240568
vn -0.773976 -0.633215 0.000000
vn -0.890421 -0.455137 0.000000
vn -0.773976 -0.633215 0.000000
vn -0.731285 -0.638239 0.240568
vn -0.840328 -0.454745 0.295053
vn -0.998897 -0.046957 0.000000
vn -0.890421 -0.455137 0.000000
vn -0.840328 -0.454745 0.295053
vn -0.928509 -0.037593 0.369401
vn -0.996889 0.078823 0.000000
vn -0.998897 -0.046957 0.000000
vn -0.928509 -0.037593 0.369401
vn -0.934652 0.124567 0.333030
vn -0.391528 0.920166 0.000000
vn -0.391528 0.920166 0.000000
vn -0.335963 0.933480 0.125475
vn -0.341028 0.933029 0.114701
vn -0.108252 0.993376 0.038538
vn 0.000004 0.998213 0.059764
vn 0.000000 1.000000 0.000000
vn -0.110135 0.993917 0.000000
vn 0.341028 0.933029 0.114701
vn 0.335963 0.933480 0.125475
vn 0.391528 0.920166 0.000000
vn 0.391528 0.920166 0.000000
vn 0.934652 0.124567 0.333030
vn 0.928509 -0.037593 0.369401
vn 0.998897 -0.046957 0.000000
vn 0.996889 0.078823 0.000000
vn 0.998897 -0.046957 0.000000
vn 0.890421 -0.455137 0.000000
vn 0.843660 -0.451014 -0.291244
vn 0.931568 -0.037371 -0.361640
vn 0.890421 -0.455137 0.000000
vn 0.773976 -0.633215 0.000000
vn 0.736287 -0.633670 -0.237368
vn 0.843660 -0.451014 -0.291244
vn 0.283131 -0.958213 -0.040798
vn 0.736287 -0.633670 -0.237368
vn 0.773976 -0.633215 0.000000
vn 0.307360 -0.951593 0.000000
vn 0.000000 -1.000000 0.000000
vn 0.000000 -1.000000 0.000000
vn 0.000000 -1.000000 0.000000
vn 0.000000 -1.000000 0.000000
vn -0.736287 -0.633670 -0.237368
vn -0.283131 -0.958213 -0.040798
vn -0.307360 -0.951593 0.000000
vn -0.773976 -0.633215 0.000000
vn -0.843660 -0.451014 -0.291244
vn -0.736287 -0.633670 -0.237368
vn -0.773976 -0.633215 0.000000
vn -0.890421 -0.455137 0.000000
vn -0.931568 -0.037371 -0.361640
vn -0.843660 -0.451014 -0.291244
vn -0.890421 -0.455137 0.000000
vn -0.998897 -0.046957 0.000000
vn -0.936182 0.121711 -0.329773
vn -0.931568 -0.037371 -0.361640
vn -0.998897 -0.046957 0.000000
vn -0.996889 0.078823 0.000000
vn -0.345214 0.931485 -0.114732
vn -0.340801 0.931797 -0.124935
vn -0.391528 0.920166 0.000000
vn -0.391528 0.920166 0.000000
vn -0.110135 0.993917 0.000000
vn 0.000000 1.000000 0.000000
vn 0.000003 0.998275 -0.058720
vn -0.106657 0.993431 -0.041453
vn 0.391528 0.920166 0.000000
vn 0.391528 0.920166 0.000000
vn 0.340801 0.931797 -0.124935
vn 0.345214 0.931485 -0.114732
vn 0.996889 0.078823 0.000000
vn 0.998897 -0.046957 0.000000
vn 0.931568 -0.037371 -0.361640
vn 0.936182 0.121711 -0.329773
vn 0.320886 -0.546203 -0.773754
vn 0.116881 -0.975258 -0.187644
vn -0.000937 -0.982043 -0.188656
vn -0.000111 -0.565229 -0.824934
vn 0.000000 -1.000000 0.000000
vn 0.000000 -1.000000 0.000000
vn 0.000000 -1.000000 0.000000
vn 0.000000 -1.000000 0.000000
vn 0.000000 -1.000000 0.000000
vn 0.000000 -1.000000 0.000000
vn 0.000000 -1.000000 0.000000
vn 0.000000 -1.000000 0.000000
vn 0.000000 -1.000000 0.000000
vn 0.000000 -1.000000 0.000000
vn 0.000000 -1.000000 0.000000
vn 0.000000 -1.000000 0.000000
vn 0.000000 -1.000000 0.000000
vn 0.000000 -1.000000 0.000000
vn 0.000000 -1.000000 0.000000
vn 0.000000 -1.000000 0.000000
vn -0.000111 -0.565229 0.824934
vn -0.000937 -0.982043 0.188656
vn 0.116881 -0.975258 0.187644
vn 0.320886 -0.546203 0.773753
vn 0.000078 -0.396780 0.917914
vn -0.000111 -0.565229 0.824934
vn 0.320886 -0.546203 0.773753
vn 0.332734 -0.376677 0.864525
vn 0.000072 -0.003891 0.999992
vn 0.000078 -0.396780 0.917914
vn 0.332734 -0.376677 0.864525
vn 0.339695 0.000012 0.940536
vn -0.000066 0.227016 0.973891
vn 0.000072 -0.003891 0.999992
vn 0.339695 0.000012 0.940536
vn 0.330146 0.214259 0.919291
vn -0.000184 0.928802 0.370577
vn 0.000151 0.928802 0.370577
vn 0.143124 0.919161 0.366958
vn 0.143124 0.919161 0.366958
vn 0.000004 0.998213 0.059764
vn 0.000226 0.984861 0.173347
vn 0.099375 0.980016 0.172318
vn 0.107379 0.993470 0.038555
vn 0.000000 1.000000 0.000000
vn 0.000004 0.998213 0.059764
vn 0.107379 0.993470 0.038555
vn 0.109319 0.994007 0.000000
vn 0.000003 0.998275 -0.058720
vn 0.000000 1.000000 0.000000
vn 0.109319 0.994007 0.000000
vn 0.105785 0.993524 -0.041462
vn 0.000218 0.988050 -0.154134
vn 0.000003 0.998275 -0.058720
vn 0.105785 0.993524 -0.041462
vn 0.095303 0.983575 -0.153286
vn 0.143124 0.919161 -0.366958
vn 0.000151 0.928802 -0.370577
vn -0.000184 0.928802 -0.370577
vn 0.143124 0.919161 -0.366958
vn 0.000072 -0.003891 -0.999992
vn -0.000066 0.227015 -0.973891
vn 0.330146 0.214259 -0.919291
vn 0.339695 0.000012 -0.940536
vn 0.000078 -0.396780 -0.917914
vn 0.000072 -0.003891 -0.999992
vn 0.339695 0.000012 -0.940536
vn 0.332734 -0.376677 -0.864525
vn -0.000111 -0.565229 -0.824934
vn 0.000078 -0.396780 -0.917914
vn 0.332734 -0.376677 -0.864525
vn 0.320886 -0.546203 -0.773754
s off
g jewel:group2 jewel:pCube3 jewel:polySurface1
usemtl lambert12SG
f 1/1/1 65/79/2 66/87/3 13/28/4
f 21/3/5 70/4/6 71/5/7 26/6/8
f 61/84/9 7/8/10 14/34/11 78/82/12
f 31/9/13 64/83/14 65/79/15 1/1/16
f 2/11/17 32/12/18 33/36/19 16/35/20
f 31/9/21 1/1/22 13/28/23 30/27/24
f 28/13/25 9/14/26 3/15/27 27/16/28
f 5/17/29 75/85/30 76/90/31 10/20/32
f 12/21/33 35/22/34 36/23/35 4/24/36
f 9/14/37 68/89/38 69/86/39 3/15/40
f 30/27/41 13/28/42 17/29/43 29/30/44
f 18/31/45 77/91/46 78/82/47 14/34/48
f 16/35/49 33/36/50 34/37/51 20/38/52
f 13/28/53 66/87/54 67/88/55 17/29/56
f 29/30/57 17/29/58 9/14/59 28/13/60
f 10/20/61 76/90/62 77/91/63 18/31/64
f 20/38/65 34/37/66 35/22/67 12/21/68
f 17/29/69 67/88/70 68/89/71 9/14/72
f 3/41/73 69/42/74 70/4/75 21/3/76
f 4/43/77 36/44/78 25/45/79 22/46/80
f 75/63/81 5/64/82 24/75/83 74/76/84
f 27/78/85 3/41/86 21/3/87 26/6/88
f 58/92/89 73/93/90 74/76/91 24/75/92
f 5/64/93 57/94/94 58/92/95 24/75/96
f 10/20/97 56/48/98 57/47/99 5/17/100
f 18/31/101 55/49/102 56/48/103 10/20/104
f 14/34/105 54/50/106 55/49/107 18/31/108
f 54/50/109 14/34/110 7/8/111 53/51/112
f 7/8/113 61/84/114 62/80/115 53/51/116
f 52/53/117 8/54/118 15/56/119 51/55/120
f 50/57/121 51/55/122 15/56/123 19/58/124
f 49/59/125 50/57/126 19/58/127 11/60/128
f 60/61/129 49/59/130 11/60/131 6/62/132
f 59/95/133 60/96/134 6/97/135 23/98/136
f 35/22/137 34/37/138 38/65/139 37/66/140
f 34/37/141 33/36/142 39/67/143 38/65/144
f 39/67/145 33/36/146 32/12/147 40/68/148
f 41/69/149 63/81/150 64/83/151 31/9/152
f 41/69/153 31/9/154 30/27/155 42/71/156
f 43/72/157 42/71/158 30/27/159 29/30/160
f 44/73/161 43/72/162 29/30/163 28/13/164
f 45/74/165 44/73/166 28/13/167 27/16/168
f 46/99/169 45/100/170 27/78/171 26/6/172
f 26/6/173 71/5/174 72/101/175 46/99/176
f 25/45/177 36/44/178 48/102/179 47/103/180
f 36/23/181 35/22/182 37/66/183 48/77/184
f 37/66/185 38/65/186 50/57/187 49/59/188
f 38/65/189 39/67/190 51/55/191 50/57/192
f 52/53/193 51/55/194 39/67/195 40/68/196
f 53/51/197 62/80/198 63/81/199 41/69/200
f 54/50/201 53/51/202 41/69/203 42/71/204
f 55/49/205 54/50/206 42/71/207 43/72/208
f 56/48/209 55/49/210 43/72/211 44/73/212
f 57/47/213 56/48/214 44/73/215 45/74/216
f 58/92/217 57/94/218 45/100/219 46/99/220
f 46/99/221 72/101/222 73/93/223 58/92/224
f 47/103/225 48/102/226 60/96/227 59/95/228
f 48/77/229 37/66/230 49/59/231 60/61/232
f 15/56/233 8/54/234 61/7/235 78/33/236
f 62/52/237 61/7/238 8/54/239 52/53/240
f 63/70/241 62/52/242 52/53/243 40/68/244
f 64/10/245 63/70/246 40/68/247 32/12/248
f 65/2/249 64/10/250 32/12/251 2/11/252
f 66/39/253 65/2/254 2/11/255 16/35/256
f 67/40/257 66/39/258 16/35/259 20/38/260
f 68/25/261 67/40/262 20/38/263 12/21/264
f 69/26/265 68/25/266 12/21/267 4/24/268
f 70/4/269 69/42/270 4/43/271 22/46/272
f 71/5/273 70/4/274 22/46/275 25/45/276
f 72/101/277 71/5/278 25/45/279 47/103/280
f 73/93/281 72/101/282 47/103/283 59/95/284
f 74/76/285 73/93/286 59/95/287 23/98/288
f 6/97/289 75/63/290 74/76/291 23/98/292
f 76/19/293 75/18/294 6/62/295 11/60/296
f 77/32/297 76/19/298 11/60/299 19/58/300
f 78/33/301 77/32/302 19/58/303 15/56/304
